<?xml version="1.0" encoding="UTF-8"?>
<svg width="512" height="512" version="1.1" viewBox="0 0 512 512" xml:space="preserve" xmlns="http://www.w3.org/2000/svg">
<style type="text/css">
	.st0{fill-rule:evenodd;clip-rule:evenodd;fill:#5DFC71;}
	.st1{fill-rule:evenodd;clip-rule:evenodd;fill:#16284A;}
</style>
<title>VRT logo</title>
<g transform="scale(.0991)"><g id="vlpa" transform="translate(0,-1)">
	<path class="st0" d="m2582 5166c-1424 0-2582-1158-2582-2582s1158-2582 2582-2582h2582v2582c0 1424-1159 2582-2582 2582"/>
	<path class="st1" d="m3889 3284c282 0 496-229 496-511 0-2.3 0-4.6-0.1-6.9-0.2-17.2-14.5-31-31.8-31l-250 0.1c-24.3 0-43.3 15-46.6 44.2l-0.1 1.2c-7.5 105-71.5 169-161 169-95.4 0-162-73.1-162-190l0.1-13.5c0-17.4-0.3-541-0.3-541h447c17.5 0 31.8-14.2 31.8-31.7v-238c0-17.5-14.3-31.7-31.8-31.7h-447v-340c0-17.5-14.2-31.7-31.8-31.7h-291c-17.5 0-31.7 14.2-31.9 32.2v1171c0.2 328 210 548 510 548"/>
	<path class="st1" d="m2673 3138v-447c9.7-277 202-499 479-487 4.6 0.1 9.1-0.1 13.8 0.1 19.8 0.7 36.4-15 36.4-34.9v-240c0-18.5-14.4-33.8-32.9-35-172-11.7-360 13.2-510 196v-152c0-19.5-15.8-35.3-35.3-35.3h-270c-19.4 0-35.2 15.8-35.2 35.3v1288c0 19.4 15.8 35.3 35.2 35.3h284c19.5 0 35.3-15.8 35.3-35.3v-90.2z"/>
	<path class="st1" d="m2107 1904h-296c-15.6 0-29.4 10.3-33.8 25.3l-278 888h-5.4l-284-888c-4.5-14.9-18.2-25.1-33.8-25.1h-296c-23.8 0-40.8 23.2-33.6 45.9l443 1288c4.7 14.7 18.2 24.6 33.6 24.6h341c15.4 0 29-9.9 33.6-24.6l443-1288c7.2-22.7-9.8-45.9-33.6-45.9"/>
</g></g>
</svg>
